<svg xmlns="http://www.w3.org/2000/svg" viewBox="0 0 32 32">
  <rect width="32" height="32" rx="6" fill="#d97706"/>
  <g transform="translate(5.5 5)" fill="none" stroke="#fff" stroke-linecap="round" stroke-linejoin="round">
    <!-- Bread/baguette shape -->
    <path d="M1.5 12c0-3 1.5-5.5 4-6.5S10 4 10.5 4s3.5.5 5 1.5 4 3.5 4 6.5-1.5 5-4 6-5.5 1.5-5.5 1.5-3.5-.5-5-1.5-4-3.5-4-6z" stroke-width="2"/>
    <!-- Sesame seeds / dots -->
    <circle cx="4" cy="9" r="0.8" fill="#fff" stroke="none"/>
    <circle cx="7" cy="7" r="0.8" fill="#fff" stroke="none"/>
    <circle cx="10.5" cy="6.5" r="0.8" fill="#fff" stroke="none"/>
    <circle cx="14" cy="7" r="0.8" fill="#fff" stroke="none"/>
    <circle cx="17" cy="9" r="0.8" fill="#fff" stroke="none"/>
    <circle cx="5.5" cy="13" r="0.8" fill="#fff" stroke="none"/>
    <circle cx="9" cy="15" r="0.8" fill="#fff" stroke="none"/>
    <circle cx="12.5" cy="15" r="0.8" fill="#fff" stroke="none"/>
    <circle cx="16" cy="13" r="0.8" fill="#fff" stroke="none"/>
    <!-- Green herb accent -->
    <path d="M8 20c1.5-1 3-1.5 4.5-1.5s3 0.5 4.5 1.5" stroke-width="1.5" stroke="#22c55e"/>
  </g>
</svg>